<?xml version="1.0" encoding="UTF-8"?>
<svg id="katman_1" data-name="katman 1" xmlns="http://www.w3.org/2000/svg" viewBox="0 0 282.66 74.07">
  <defs>
    <style>
      .cls-1 {
        fill: #ef9f05;
      }

      .cls-1, .cls-2 {
        fill-rule: evenodd;
      }

      .cls-3, .cls-2 {
        fill: #1b4379;
      }
    </style>
  </defs>
  <path class="cls-3" d="m262.39,57.62h20.18v3.63h-26.42l20.27-44.57h-20.17v-3.69h26.42l-20.27,44.63Zm-99.46,3.63c-7.39,0-12.79-5.51-12.79-12.76v-18.88c0-8.48,2.45-16.62,12.79-16.62h12.33v3.69h-12.33c-7.89,0-9.13,6.41-9.13,12.93v18.88c0,5.32,3.81,9.13,9.13,9.13h9.11v-20.56h-6.13v-3.68h9.81v27.88h-12.79Zm-37.44,0V12.99h20.74v3.69h-17.09v16.7h12.72v3.68h-12.72v20.56h17.09v3.63h-20.74Zm-11.1,0V21.99l-11.31,22.01-11.3-22.01v39.26h-3.68V12.99h3.12l11.86,23.91,11.84-23.91h3.15v48.26h-3.68ZM247.28,12.99h3.69v48.26h-3.69V12.99Zm-16.23,24.07h-10.06v20.58h9.13c10.66,0,13.54-18.27.92-20.58m-.92-20.39h-9.13v16.72h10.23c6.66,0,9.88-16.72-1.09-16.72m0,44.58h-12.79V12.99h12.79c12.54-.2,13.93,16.47,6.58,21.98,10.91,5.52,7.11,26.28-6.58,26.28m-22.78,0c-3.74-11.44-8.04-29.94-11.75-41.09-3.73,11.17-8.03,29.16-11.83,41.09h-3.82l.11-.33,13.71-46.97.32-.96h2.95l.32.96,13.74,46.97.11.33h-3.85Z"/>
  <path class="cls-2" d="m48.49,20.07c-1.64,2.84-5.28,3.82-8.12,2.18-2.84-1.64-3.82-5.28-2.18-8.12l8.61-3.02,1.69,8.97Zm-33.32,0c1.64,2.84,5.28,3.82,8.12,2.18,2.84-1.64,3.82-5.28,2.17-8.12l-8.61-3.02-1.69,8.97Zm23.02,39.87c-1.64-2.84-.67-6.48,2.18-8.12,2.84-1.64,6.48-.67,8.12,2.17l-1.69,8.97-8.61-3.02Zm-29.38-16.97c3.28,0,5.95-2.66,5.95-5.94s-2.66-5.95-5.95-5.95l-6.92,5.95,6.92,5.94Zm46.04,0c-3.28,0-5.95-2.66-5.95-5.94s2.66-5.95,5.95-5.95l6.92,5.95-6.92,5.94Zm-29.39,16.97c1.64-2.84.67-6.48-2.17-8.12-2.84-1.64-6.48-.67-8.12,2.17l1.69,8.97,8.61-3.02Z"/>
  <path class="cls-1" d="m3.54,45.19c-3.39,1.96-4.55,6.28-2.59,9.67,1.95,3.39,6.28,4.55,9.67,2.59l3.6-10.25-10.68-2.01Zm21.21,20.42c0,3.91,3.17,7.08,7.08,7.08s7.08-3.17,7.08-7.08l-7.08-8.24-7.08,8.24Zm28.29-8.16c3.39,1.95,7.71.79,9.67-2.59,1.95-3.39.79-7.71-2.59-9.67l-10.68,2.01,3.6,10.25Zm0-40.84c3.39-1.96,7.71-.8,9.67,2.59,1.95,3.39.79,7.71-2.59,9.67l-10.68-2.01,3.6-10.25Zm-28.29-8.16c0-3.91,3.17-7.08,7.08-7.08s7.08,3.17,7.08,7.08l-7.08,8.24-7.08-8.24ZM3.54,28.88C.15,26.92-1,22.6.95,19.21c1.95-3.39,6.28-4.55,9.67-2.59l3.6,10.25-10.68,2.01Z"/>
  <path class="cls-2" d="m31.83,24.94c6.68,0,12.09,5.41,12.09,12.09s-5.41,12.09-12.09,12.09-12.09-5.41-12.09-12.09,5.41-12.09,12.09-12.09"/>
  <rect class="cls-3" x="75.92" width=".53" height="74.07"/>
</svg>